HIERARCHY
ROOT Hips
{
     OFFSET 1.88212 96.90440 -13.34250
     CHANNELS 6 Xposition Yposition Zposition Zrotation Xrotation Yrotation
     JOINT Spine
     {
          OFFSET 0.00000 11.89050 0.00000
          CHANNELS 3 Zrotation Xrotation Yrotation
          JOINT Spine1
          {
               OFFSET -0.00000 25.65740 0.12766
               CHANNELS 3 Zrotation Xrotation Yrotation
               JOINT HEad
               {
                    OFFSET 0.00000 8.73416 0.01134
                    CHANNELS 3 Zrotation Xrotation Yrotation
                    End Site
                    {
                         OFFSET -0.29000 12.77420 2.51395
                    }
               }
               JOINT LeftShoulder1
               {
                    OFFSET 8.99000 -0.36225 -0.22000
                    CHANNELS 3 Zrotation Xrotation Yrotation
                    JOINT LeftArm
                    {
                         OFFSET 10.28270 -0.00338 0.32212
                         CHANNELS 3 Zrotation Xrotation Yrotation
                         JOINT LeftForeArm
                         {
                              OFFSET 32.76690 0.09914 -1.42434
                              CHANNELS 3 Zrotation Xrotation Yrotation
                              JOINT LeftHand
                              {
                                   OFFSET 27.56430 0.08536 1.02216
                                   CHANNELS 3 Zrotation Xrotation Yrotation
                                   End Site
                                   {
                                        OFFSET 16.74430 -0.60000 1.50291
                                   }
                              }
                         }
                    }
               }
               JOINT RightShoulder
               {
                    OFFSET -8.99000 -0.36225 -0.22000
                    CHANNELS 3 Zrotation Xrotation Yrotation
                    JOINT RightArm
                    {
                         OFFSET -10.28270 -0.00338 0.32212
                         CHANNELS 3 Zrotation Xrotation Yrotation
                         JOINT RightForeArm
                         {
                              OFFSET -32.89710 0.09914 -1.42434
                              CHANNELS 3 Zrotation Xrotation Yrotation
                              JOINT RightHand
                              {
                                   OFFSET -27.49210 0.08536 1.02216
                                   CHANNELS 3 Zrotation Xrotation Yrotation
                                   End Site
                                   {
                                        OFFSET -16.63120 -0.60000 1.50291
                                   }
                              }
                         }
                    }
               }
          }
     }
     JOINT LeftUpLeg
     {
          OFFSET 8.94580 -8.66707 0.10165
          CHANNELS 3 Zrotation Xrotation Yrotation
          JOINT LeftLeg
          {
               OFFSET 0.00000 -44.42270 1.37270
               CHANNELS 3 Zrotation Xrotation Yrotation
               JOINT LeftFoot
               {
                    OFFSET -0.25355 -42.09240 -1.46059
                    CHANNELS 3 Zrotation Xrotation Yrotation
                    JOINT LeftToes
                    {
                         OFFSET -0.04000 -4.41509 8.49910
                         CHANNELS 3 Zrotation Xrotation Yrotation
                         End Site
                         {
                              OFFSET 0.08000 -0.04745 9.77979
                         }
                    }
               }
          }
     }
     JOINT RightUpLeg
     {
          OFFSET -8.94580 -8.66707 0.10165
          CHANNELS 3 Zrotation Xrotation Yrotation
          JOINT RightLeg
          {
               OFFSET 0.00000 -44.42270 1.37270
               CHANNELS 3 Zrotation Xrotation Yrotation
               JOINT RightFoot
               {
                    OFFSET 0.25355 -42.09240 -1.46059
                    CHANNELS 3 Zrotation Xrotation Yrotation
                    JOINT RightToes
                    {
                         OFFSET 0.04000 -4.41509 8.49910
                         CHANNELS 3 Zrotation Xrotation Yrotation
                         End Site
                         {
                              OFFSET -0.08000 -0.13745 9.77979
                         }
                    }
               }
          }
     }
}
MOTION
Frames: 10
Frame Time: 0.01667
42.73473 91.83915 -119.99959 2.35605 1.58148 -14.79919 -6.65606 4.76687 6.47139 0.12352 0.03380 -0.03071 -8.61878 6.03727 15.56804 3.31204 5.44233 1.38712 -95.37785 -17.06071 -90.02478 -34.69828 34.55731 -79.57863 29.05972 -21.81927 -56.69394 18.42565 8.05671 9.90816 55.52214 6.87848 88.27955 37.05810 16.28947 79.33788 -24.08826 -4.23208 34.03312 12.71030 -23.19650 13.55340 -5.80719 18.26538 0.36717 0.92307 -0.00404 -0.00674 -10.26682 27.50017 18.97868 -13.49419 9.03380 22.26105 15.73041 8.37349 -86.79775 13.34930 0.04680 0.06615 -6.86890 13.37865 14.58915 
42.05354 89.69878 -121.47922 3.04390 -3.72273 -17.18236 -5.72881 10.07641 8.20416 0.10902 0.04348 -0.02623 -12.22126 5.86830 16.40812 0.89542 5.30062 1.68211 -97.29825 -16.84447 -88.59050 -36.02755 36.38147 -80.04794 29.90972 -9.83966 -47.35426 15.78006 7.96352 10.56975 56.66647 10.34793 88.63540 37.32035 16.48411 77.54310 -21.87200 2.51631 31.41830 13.26465 -21.23458 14.20367 -7.23529 23.14513 2.49640 -0.25091 -0.00498 -0.01437 -9.21069 26.05881 18.09554 -17.52373 9.85438 23.49294 22.55726 13.45214 -87.27357 16.67411 0.05807 0.12148 -7.67636 8.30859 17.91616 
41.40289 86.74637 -123.25706 3.34744 -8.36488 -19.25418 -3.56900 15.47620 8.34682 0.08836 0.05587 -0.02374 -17.02396 6.60595 18.74919 -2.57272 4.98936 2.43377 -99.33287 -17.20001 -87.22599 -37.45015 38.17300 -80.86022 29.85690 -16.72514 -56.46615 12.11237 7.84821 12.09987 57.32343 13.11169 88.68929 41.97360 14.87819 77.17991 -17.78378 -12.34726 44.23555 14.15740 -20.81621 14.11248 -7.76161 30.85310 5.27957 -2.93721 0.00006 -0.08208 -7.57530 22.86651 16.22281 -21.75670 8.96804 23.65417 30.80448 20.64197 -86.95503 21.14371 0.05713 0.19462 -8.34358 2.14658 18.99681 
40.87936 83.60512 -125.06876 3.36345 -12.39706 -21.12519 -1.48444 20.04440 7.61793 -0.01913 0.00931 0.01069 -21.63962 8.81056 22.23434 5.00344 7.50383 -2.14493 -113.10093 -21.36378 -89.18446 -38.79245 40.21256 -82.09500 30.11620 -9.58288 -51.13746 8.88991 8.14721 13.87946 57.82373 15.50887 88.62556 44.33172 13.99787 76.42814 -17.71108 4.54856 36.22072 15.27146 -21.81827 13.36268 -9.61744 39.15361 9.13495 -5.33827 0.01469 -0.07076 -5.72300 19.75412 14.50620 -26.14052 6.40341 22.72811 41.03042 30.08522 -86.91555 26.64690 0.06322 0.29578 3.62109 -12.08996 32.01001 
40.52201 79.86346 -126.98640 3.19941 -15.91166 -22.89824 0.48302 23.85698 6.25012 -0.02216 0.01322 0.01337 -26.49515 12.02795 26.85698 1.15145 7.84864 -0.63697 -113.90221 -22.04343 -87.47944 -40.43958 42.12325 -83.20926 29.76677 -13.92988 -57.05346 5.98150 8.77143 15.77440 58.10958 17.60094 88.63820 45.53662 13.48025 75.59144 -7.47841 -16.74779 54.94074 16.58515 -24.23513 12.12863 -13.14850 48.31987 14.55718 -7.86589 0.01855 -0.07456 -3.14212 16.38493 12.86316 -30.56912 2.31407 20.69209 54.25986 41.09604 -89.05238 32.62573 0.07922 0.38511 -5.36907 -16.17358 26.64224 
40.33767 75.93410 -128.83096 2.99354 -18.95585 -24.59920 2.20065 26.90800 4.48102 -0.02257 0.01751 0.01635 -31.26313 14.78670 31.54125 -1.99938 8.37635 0.80375 -114.92401 -22.85905 -86.18465 -42.24512 43.74891 -83.84052 29.44773 -9.58868 -54.11753 3.37262 9.60364 17.78075 58.36830 19.49630 88.74053 46.02292 13.14919 74.43707 -10.70278 -7.27626 46.02511 17.94665 -27.91192 10.56418 -19.53174 57.90455 22.70980 -10.68885 0.02416 -0.08184 -0.58236 12.92020 11.42384 -34.89686 -2.82252 17.49245 72.39051 51.95568 -96.14002 38.42622 0.09096 0.41910 -3.81912 -26.11246 31.76166 
40.33268 71.27781 -130.70392 2.82485 -21.59108 -26.23706 3.58017 29.25246 2.52737 -0.01868 0.02178 0.01804 -35.87451 17.08995 36.23525 -4.51807 9.16627 2.19290 -116.04802 -23.64052 -85.31281 -50.99137 45.35196 -80.27570 29.63787 -7.92153 -59.17651 1.11336 10.66773 19.70190 58.52003 20.95521 88.97433 46.43722 12.78492 73.57952 -7.78404 -9.06740 52.27231 19.28318 -32.74384 8.92940 -31.46423 67.25835 36.24670 -13.96939 0.03282 -0.08585 2.62707 9.38846 10.08034 -39.01212 -8.36544 13.14516 95.85239 60.33714 -110.93514 43.48156 0.10573 0.30577 -7.71402 -32.11628 31.17481 
40.49094 66.34989 -132.43155 2.74213 -23.83055 -27.79863 4.55214 30.90676 0.60747 -0.01764 0.02519 0.02050 -40.22679 18.98484 40.85377 -6.52181 10.08807 3.64064 -117.08203 -24.16643 -84.62133 -56.59993 46.42108 -77.82501 29.61257 -2.88838 -58.56798 -0.83424 11.84148 21.64616 58.70286 21.98398 89.21815 46.88136 12.34111 72.73390 -9.37522 -3.34351 47.11832 20.75719 -37.42563 7.82709 -52.77101 74.24668 58.47745 -17.60584 0.03868 -0.07395 5.26827 6.51467 9.03897 -42.86185 -13.82528 7.68213 125.62057 63.95547 -134.14478 47.64600 0.08735 0.21188 -8.52434 -38.12242 34.17399 
40.75349 60.88982 -134.07059 2.77836 -25.73988 -29.27705 5.15073 32.34783 -0.91605 -0.01422 0.02423 0.01987 -44.15109 20.41600 44.85378 -7.88330 10.82397 4.92124 -118.14113 -24.25559 -84.07305 -60.08588 47.12810 -76.25793 29.48063 -3.72382 -61.17496 -2.26049 12.78290 23.20417 58.72512 22.63452 89.44870 47.54706 11.83293 72.09355 -6.95975 -4.14988 50.73257 22.52835 -41.99899 7.38950 -86.75537 77.36959 92.75623 -21.49635 0.03733 -0.05095 7.84369 4.26208 8.26307 -46.52807 -18.90902 1.18774 154.26506 62.15620 -158.20679 51.16415 0.06919 0.14584 -10.90023 -42.55643 35.13865 
41.06569 55.44075 -135.49841 2.93498 -27.35945 -30.66623 5.42740 33.59171 -2.03090 -0.01338 0.02283 0.01951 -47.59591 21.50721 48.22865 -8.79670 11.36708 6.11454 -119.07912 -24.05374 -83.59840 -62.25225 47.42762 -75.39848 28.92527 -1.91209 -60.76340 -3.34019 13.46896 24.42247 58.75476 22.93085 89.65584 48.47900 11.28739 71.73070 -7.63601 -0.38693 47.60508 24.69350 -46.40501 7.69450 -119.98102 76.07104 125.74657 -25.50237 0.02869 -0.02383 10.12022 2.84591 7.63069 -49.99389 -23.45841 -6.23521 174.99805 56.32165 -176.19844 54.17338 0.05795 0.10920 -12.27606 -46.71541 37.23628 
